<svg xmlns="http://www.w3.org/2000/svg" xml:space="preserve" width="160.52417mm" height="360.68533mm" viewBox="0 0 160.52417 360.68534"><defs><clipPath id="b" clipPathUnits="userSpaceOnUse"><path d="M265.387-14.033h94.586v271.59h-94.586zm29.13 88.017v88.532l28.386-46.661z" class="powerclip" style="fill:#fff;fill-opacity:1;stroke-width:.264583"/></clipPath><clipPath id="a" clipPathUnits="userSpaceOnUse"><path d="M102.62-27.565h110.109v276.59H102.62Zm45.924 112.79v36.152l11.592-19.054z" class="powerclip" style="fill:#000;fill-opacity:1;stroke:none;stroke-width:2;stroke-linecap:round;stroke-linejoin:round;stroke-dasharray:none;stroke-opacity:1"/></clipPath></defs><g style="display:inline;stroke:#000;stroke-width:2;stroke-linecap:round;stroke-linejoin:round;stroke-dasharray:none;stroke-opacity:1"><g style="stroke:#000;stroke-width:2;stroke-linecap:round;stroke-linejoin:round;stroke-dasharray:none;stroke-opacity:1"><path d="m192.206 99.69 15.523 6.137L124.74-14.73l-17.121-7.835zM107.62 239.025l15.17 5 84.939-138.197-15.523-6.136zm24.129-178.572v88.532l16.795-27.607V85.225ZM107.62-22.565v261.59L192.206 99.69z" style="display:inline;fill:none;fill-opacity:1;stroke:#000;stroke-width:2;stroke-linecap:round;stroke-linejoin:round;stroke-dasharray:none;stroke-opacity:1" transform="translate(-106.62 115.66)"/><path d="M311.312 98.757v36.152l11.591-19.054z" style="display:block;fill:none;fill-opacity:1;stroke:#000;stroke-width:2;stroke-linecap:round;stroke-linejoin:round;stroke-dasharray:none;stroke-opacity:1" transform="translate(-269.387 102.129)"/></g><path d="m374.887 124.016-16.401-5.712 26.722 38.828v-18.834Zm37.968-148.855v271.137l16.056 4.44-2.35-267.77zM310.437 38.107l16.027 6.994 58.744-5.332v-9.307zm48.049 80.197 26.722 38.828V30.462l-74.771 7.645-16.83-24.712 101.417-11.31 17.83-26.924v271.137l-70.257-102.721Z" style="display:inline;fill:none;fill-opacity:1;stroke:#000;stroke-width:2;stroke-linecap:round;stroke-linejoin:round;stroke-dasharray:none;stroke-opacity:1" transform="translate(-269.387 102.129)"/><path d="m270.387-84.097 37.014 20.437-.226.243zm68.654-13.507 14.29 7.741 22.545 17.384-2.053 1.689zm-68.654 70.459 15.963 8.201 41.182-4.529-15.42-8.367zm0 0 15.963 8.201 139.102-15.298-14.726-8.693zm140.339-73.984 13.75 11.887.976 55-14.726-8.693zM270.387-84.097v56.952l140.339-15.79v-58.194L373.823-70.79 339.04-97.604l-31.866 34.187z" style="fill:none;fill-opacity:1;stroke:#000;stroke-width:2;stroke-linecap:round;stroke-linejoin:round;stroke-dasharray:none;stroke-opacity:1" transform="translate(-269.387 102.129)"/></g><path d="M273.968-123.437 310.982-103l-.226.242zm68.654-13.507 14.29 7.74 22.545 17.385-2.053 1.688zm-68.654 70.458 15.963 8.202 41.183-4.53-15.42-8.367zm0 0 15.963 8.202 139.102-15.299-14.726-8.693zm140.339-73.984 13.75 11.887.976 55-14.726-8.693zm-140.339 17.033v56.951l140.339-15.79v-58.194l-36.903 30.34-34.782-26.814-31.866 34.186z" style="fill:#fff;fill-opacity:1;stroke-width:.264583" transform="translate(-272.968 141.47)"/><path d="M270.387-84.097v56.952l140.339-15.79v-58.194L373.823-70.79 339.04-97.604l-31.866 34.187z" style="display:inline;fill:#fae60b;fill-opacity:1;stroke-width:.264583" transform="translate(-269.387 102.129)"/><path d="m410.726-101.129 13.75 11.887.976 55-14.726-8.693z" style="display:inline;fill:#fff;fill-opacity:1;stroke-width:.264583" transform="translate(-269.387 102.129)"/><path d="m270.387-27.145 15.963 8.201 139.102-15.298-14.726-8.693z" style="fill:#f1a23b;fill-opacity:1;stroke-width:.264583" transform="translate(-269.387 102.129)"/><path d="m270.387-27.145 15.963 8.201 41.182-4.529-15.42-8.367zM339.04-97.604l14.29 7.741 22.546 17.384-2.053 1.689zM270.387-84.097l37.014 20.437-.226.243z" style="fill:#fff;fill-opacity:1;stroke-width:.264583" transform="translate(-269.387 102.129)"/><g style="stroke:none"><g style="display:inline;stroke:none"><path d="m192.206 99.69 15.523 6.137L124.74-14.73l-17.121-7.835zM107.62 239.025l15.17 5 84.939-138.197-15.523-6.136zm24.129-178.572v88.532l16.795-27.607V85.225ZM107.62-22.565v261.59L192.206 99.69z" clip-path="url(#a)" style="display:inline;fill:#fff;fill-opacity:1;stroke:none;stroke-width:.264583" transform="translate(-106.62 115.66)"/><path d="M270.387-9.033v261.59l84.586-139.334z" clip-path="url(#b)" style="display:inline;fill:#000;fill-opacity:1;stroke:none;stroke-width:.264583" transform="translate(-269.387 102.129)"/><path d="M294.516 73.984v88.532l16.796-27.607V98.757Z" style="display:inline;fill:#f1a23b;fill-opacity:1;stroke:none;stroke-width:.264583" transform="translate(-269.387 102.129)"/><path d="m270.387 252.556 15.17 5 84.939-138.197-15.523-6.136z" style="display:inline;fill:#fece62;fill-opacity:1;stroke:none;stroke-width:.264583" transform="translate(-269.387 102.129)"/><path d="m354.973 113.223 15.523 6.136L287.508-1.198l-17.12-7.835Z" style="display:inline;fill:#fff;fill-opacity:1;stroke:none;stroke-width:.264583" transform="translate(-269.387 102.129)"/></g><g style="display:inline;stroke:none"><path d="m374.887 124.016-16.401-5.712 26.722 38.828v-18.834Zm37.968-148.855v271.137l16.056 4.44-2.35-267.77zM310.437 38.107l16.027 6.994 58.744-5.332v-9.307zm48.049 80.197 26.722 38.828V30.462l-74.771 7.645-16.83-24.712 101.417-11.31 17.83-26.924v271.137l-70.257-102.721Z" style="display:inline;fill:#fff;fill-opacity:1;stroke-width:.264583" transform="translate(-269.387 102.129)"/><path d="m358.486 118.304 26.722 38.828V30.462l-74.771 7.645-16.83-24.712 101.417-11.31 17.83-26.924v271.137l-70.257-102.721Z" style="display:inline;fill:#000;fill-opacity:1;stroke:none;stroke-width:.264583" transform="translate(-269.387 102.129)"/><path d="m310.437 38.107 16.027 6.994 58.744-5.332v-9.307zM412.855-24.839v271.137l16.056 4.44-2.35-267.77z" style="fill:#fff;fill-opacity:1;stroke:none;stroke-width:.264583" transform="translate(-269.387 102.129)"/><path d="m427.139 48.865 1.772 201.873-16.056-4.44V38.138Z" style="display:inline;fill:#fce364;fill-opacity:1;stroke:none;stroke-width:.264583" transform="translate(-269.387 102.129)"/><path d="m374.887 124.016-16.401-5.712 26.722 38.828v-18.834z" style="fill:#fff;fill-opacity:1;stroke:none;stroke-width:.264583" transform="translate(-269.387 102.129)"/></g></g></svg>